<svg id="Layer_1" data-name="Layer 1" xmlns="http://www.w3.org/2000/svg" viewBox="0 0 525.68 513.53"><defs><style>.cls-1{fill:#005eb8;}.cls-2,.cls-3{fill:#3fa9f5;}.cls-3{stroke:#3fa9f5;stroke-miterlimit:10;stroke-width:19.03px;}</style></defs><title>Calendar_light_blue</title><path class="cls-1" d="M488.46,137.53c18,0,32.54,12.4,32.54,27.68V492.32c0,15.29-14.57,27.68-32.54,27.68H104c-18,0-32.55-12.39-32.55-27.68V165.21c0-15.28,14.57-27.68,32.55-27.68H488.46m0-20.88H104a56.3,56.3,0,0,0-36.55,13.08,46.78,46.78,0,0,0-16.88,35.48V492.32A46.78,46.78,0,0,0,67.43,527.8,56.31,56.31,0,0,0,104,540.89H488.46A56.3,56.3,0,0,0,525,527.8a46.78,46.78,0,0,0,16.88-35.48V165.21A46.78,46.78,0,0,0,525,129.73a56.29,56.29,0,0,0-36.54-13.08Z" transform="translate(-33.37 -44.53)"/><path class="cls-2" d="M488.46,137.53c18,0,32.54,12.4,32.54,27.68V492.32c0,15.29-14.57,27.68-32.54,27.68H104c-18,0-32.55-12.39-32.55-27.68V165.21c0-15.28,14.57-27.68,32.55-27.68H488.46m0-38.06H104A73.51,73.51,0,0,0,56.3,116.65a63.93,63.93,0,0,0-22.93,48.56V492.32A63.9,63.9,0,0,0,56.3,540.88,73.51,73.51,0,0,0,104,558.06H488.46a73.47,73.47,0,0,0,47.67-17.18,63.92,63.92,0,0,0,22.93-48.56V165.21a63.93,63.93,0,0,0-22.93-48.56,73.47,73.47,0,0,0-47.67-17.18Z" transform="translate(-33.37 -44.53)"/><path class="cls-2" d="M298.69,183.41c-16.33,0-29.12-17.17-29.12-39.1V89.36c0-21.92,12.79-39.1,29.12-39.1s29.12,17.18,29.12,39.1v55C327.81,166.24,315,183.41,298.69,183.41Z" transform="translate(-33.37 -44.53)"/><path class="cls-2" d="M298.69,56c12.92,0,23.38,14.94,23.38,33.36v55c0,18.43-10.46,33.37-23.38,33.37s-23.39-14.94-23.39-33.37V89.36C275.3,70.94,285.77,56,298.69,56m0-11.47c-19.55,0-34.86,19.69-34.86,44.83v55c0,25.14,15.31,44.84,34.86,44.84s34.85-19.7,34.85-44.84V89.36c0-25.14-15.31-44.83-34.85-44.83Z" transform="translate(-33.37 -44.53)"/><path class="cls-2" d="M428.51,183.41c-16.33,0-29.12-17.17-29.12-39.1V89.36c0-21.92,12.79-39.1,29.12-39.1s29.13,17.18,29.13,39.1v55C457.64,166.24,444.84,183.41,428.51,183.41Z" transform="translate(-33.37 -44.53)"/><path class="cls-2" d="M428.51,56c12.92,0,23.39,14.94,23.39,33.36v55c0,18.43-10.47,33.37-23.39,33.37s-23.39-14.94-23.39-33.37V89.36c0-18.42,10.47-33.36,23.39-33.36m0-11.47c-19.55,0-34.86,19.69-34.86,44.83v55c0,25.14,15.31,44.84,34.86,44.84s34.86-19.7,34.86-44.84V89.36c0-25.14-15.31-44.83-34.86-44.83Z" transform="translate(-33.37 -44.53)"/><rect class="cls-3" x="83.04" y="359.78" width="80.24" height="50.29"/><rect class="cls-3" x="222.72" y="359.79" width="80.24" height="50.29"/><rect class="cls-3" x="361.95" y="359.78" width="80.24" height="50.29"/><rect class="cls-3" x="83.04" y="270.31" width="80.24" height="50.28"/><rect class="cls-3" x="222.72" y="270.31" width="80.24" height="50.28"/><rect class="cls-3" x="361.95" y="270.31" width="80.24" height="50.28"/><rect class="cls-3" x="222.72" y="180.8" width="80.24" height="50.29"/><rect class="cls-3" x="361.95" y="180.8" width="80.24" height="50.29"/><rect class="cls-3" x="83.52" y="180.8" width="80.24" height="50.29"/><path class="cls-2" d="M165.49,183.41c-16.33,0-29.12-17.17-29.12-39.1V89.36c0-21.92,12.79-39.1,29.12-39.1s29.12,17.18,29.12,39.1v55C194.61,166.24,181.82,183.41,165.49,183.41Z" transform="translate(-33.37 -44.53)"/><path class="cls-2" d="M165.49,56c12.92,0,23.38,14.94,23.38,33.36v55c0,18.43-10.46,33.37-23.38,33.37s-23.39-14.94-23.39-33.37V89.36C142.1,70.94,152.57,56,165.49,56m0-11.47c-19.55,0-34.86,19.69-34.86,44.83v55c0,25.14,15.31,44.84,34.86,44.84s34.86-19.7,34.86-44.84V89.36c0-25.14-15.32-44.83-34.86-44.83Z" transform="translate(-33.37 -44.53)"/></svg>