<svg id="Layer_1" data-name="Layer 1" xmlns="http://www.w3.org/2000/svg" viewBox="0 0 598.23 240.9"><defs><style>.cls-1{fill:#005eb8;}</style></defs><title>NHS logo-RGB Blue</title><path class="cls-1" d="M600,240.9V0H1.77V240.9ZM242.29,23.24,201,217.15H136.18L95.44,83h-.55L67.78,217.15H18.64L60.26,23.24h65l39.94,134.47h.55L193.14,23.24Zm185.36,0L387.16,217.15H335l17.31-83.05H290.56l-17.32,83.05H221.05l40.5-193.91h52.19L298.4,97.43h61.7l15.36-74.19Zm149.94,5.29L565,67.14c-10-4.71-23.72-8.87-43-8.87-20.64,0-37.41,3-37.41,18.61,0,27.48,75.67,17.23,75.67,76.12,0,53.6-50,67.5-95.22,67.5-20.1,0-43.27-4.74-60.29-10L417.05,171c10.31,6.68,31,11.13,48,11.13,16.22,0,41.6-3.06,41.6-23.06C506.66,128,431,139.64,431,85c0-50,44.12-65,86.85-65,24,0,46.62,2.52,59.75,8.61Z" transform="translate(-1.77)"/></svg>