<svg id="Layer_1" data-name="Layer 1" xmlns="http://www.w3.org/2000/svg" viewBox="0 0 466.71 201.82"><defs><style>.cls-1{fill:#005eb8;}.cls-2{font-size:37px;fill:#3fa9f5;font-family:Arial-BoldMT, Arial;font-weight:700;}</style></defs><title>NHS logo-Footer</title><path class="cls-1" d="M600,128.4V0H281.13V128.4Zm-190.67-116-22,103.35H352.78L331.06,44.23h-.3l-14.44,71.51h-26.2L312.31,12.39H347l21.29,71.67h.29l14.59-71.67Zm98.81,0L486.55,115.74H458.73L468,71.48h-32.9l-9.23,44.26H398L419.6,12.39h27.81l-8.17,39.54h32.89l8.19-39.54Zm79.91,2.82-6.7,20.58c-5.36-2.51-12.65-4.73-22.91-4.73-11,0-19.94,1.62-19.94,9.92,0,14.65,40.33,9.18,40.33,40.57,0,28.57-26.65,36-50.75,36-10.72,0-23.07-2.53-32.14-5.34l6.55-21c5.49,3.56,16.52,5.93,25.59,5.93,8.64,0,22.17-1.63,22.17-12.29,0-16.59-40.34-10.37-40.34-39.52,0-26.67,23.52-34.66,46.3-34.66,12.8,0,24.85,1.34,31.84,4.59Z" transform="translate(-135.35)"/><text class="cls-2" transform="translate(0 187.9)">Barnet, Enfield &amp; Haringey</text></svg>