<svg data-name="Layer 1" xmlns="http://www.w3.org/2000/svg" viewBox="0 0 431.06 461.4"><path d="M92.07 348.61c-12.23-14.73-23.36-27.15-33.46-40.5a216.6 216.6 0 01-36.59-74.53q-13.81-50.67-5.28-112.21a137 137 0 015.72-23c3.66-11.15 11.26-20.27 22.66-27.29a284.29 284.29 0 0150.49-24.51c15.3-5.66 22.65-2.35 24.39 11.2 2 15.54 3.55 31.31 4.85 47.21 1.4 17 2.34 34.21 3.37 51.39a71.09 71.09 0 01-.15 10.59c-.89 10.29-5.57 17.59-16.32 24.9a185.12 185.12 0 01-16.38 9.7c-6 3.21-10.35 8-10 13.21a69.62 69.62 0 003.74 17.12c5.36 15.71 13 29.68 21.54 42.9a249 249 0 0044.83 51.82c9.07 8 19.06 15 28.87 22.26 12.33 9.08 26.32 16.11 41.2 22a124.35 124.35 0 0017.3 5.11c6.69 1.56 12.59-2.26 17.41-10.74 2.86-5 5.57-10.14 8.83-15.07 7.09-10.7 15.9-16.61 25.9-16.88a255.87 255.87 0 0126.88.82c26.27 2.07 52.48 4.25 78.48 6.83 5 .49 9.31 2.56 13.21 4.79 4.14 2.36 4.91 7.45 3 13.6a227.89 227.89 0 01-30.74 63c-6.22 9-14.75 13.62-23.42 16.78-13.66 5-26.33 6.38-38.91 7.51-31.63 2.84-61.13 1.25-88.05-5.22a216 216 0 01-62.83-25.71c-19.31-11.87-36.52-26-52.84-41.09-9.88-9.14-19.64-18.4-27.7-25.99z" fill="none" stroke="#3fa9f5" stroke-miterlimit="10" stroke-width="26.9"/><path d="M148.24 44.42c10 16.52 18.22 34 22.37 52.92 3.46 15.8 3.3 33.29-3.29 47.8-3 6.61-1.9 14.48 4.82 18.41 5.77 3.37 15.39 1.82 18.4-4.83 19.47-42.87 3.94-89.7-19.07-127.88-8.93-14.8-32.2-1.3-23.23 13.58zm76.82-24.43c9.95 16.52 18.22 34 22.37 52.91 3.46 15.8 3.3 33.3-3.29 47.81-3 6.61-1.9 14.47 4.82 18.4 5.77 3.38 15.39 1.82 18.4-4.82 19.47-42.87 3.94-89.7-19.08-127.88-8.93-14.81-32.19-1.3-23.22 13.58z" fill="#3fa9f5"/></svg>