<svg id="Layer_1" data-name="Layer 1" xmlns="http://www.w3.org/2000/svg" viewBox="0 0 470.48 409.21"><defs><style>.cls-1{fill:#3fa9f5}.cls-2,.cls-3{fill:#fff}.cls-3{stroke:#3fa9f5;stroke-miterlimit:10;stroke-width:20.92px}</style></defs><path class="cls-1" d="M342.74 63h57.85a21.78 21.78 0 0121.78 21.78v66.34A19.35 19.35 0 01403 170.43h-60.26A21.78 21.78 0 01321 148.65V84.73A21.78 21.78 0 01342.74 63z"/><path class="cls-2" d="M356.24 192.77v-9.87a30.42 30.42 0 0130.42-30.42 30.43 30.43 0 0130.43 30.42v9.87" transform="translate(-15 -41.63)"/><path class="cls-2" d="M404.62 141.34a17.47 17.47 0 11-17.47-17.46 17.47 17.47 0 0117.47 17.46z" transform="translate(-15 -41.63)"/><path class="cls-3" d="M229.64 254.38v48.69H89.31v-48.69a59 59 0 0159-59h22.27a59 59 0 0159.06 59z" transform="translate(-15 -41.63)"/><path class="cls-3" d="M199.76 169.67a40.29 40.29 0 11-40.28-40.28 40.29 40.29 0 0140.28 40.28z" transform="translate(-15 -41.63)"/><path fill="none" stroke-miterlimit="10" stroke-width="20.92" stroke="#3fa9f5" d="M7.33 261.43H455.5"/><path class="cls-1" d="M443 84.45c11.1 0 20.5 7.55 20.5 16.55v224.5c0 9-9.4 16.52-20.52 16.52H305.05a22 22 0 00-19 33l16.58 28.53a22 22 0 0019 10.94h24.51c8.58 0 15.84 5.63 15.84 12.29v2.05H138.5v-2.05c0-6.66 7.25-12.29 15.84-12.29h24.51a22 22 0 0019-10.94l16.58-28.53a22 22 0 00-19-33H57.5C46.38 342 37 334.46 37 325.5V101c0-9 9.4-16.53 20.52-16.53H443m0-22H57.5C34 62.47 15 79.71 15 101v224.5c0 21.27 19 38.5 42.5 38.5h137.93l-16.58 28.53h-24.51c-20.89 0-37.82 15.34-37.82 34.27v24H384v-24c0-18.93-16.93-34.27-37.82-34.27h-24.55L305.05 364H443c23.47 0 42.5-17.24 42.5-38.51V101c0-21.27-19-38.51-42.5-38.51z" transform="translate(-15 -41.63)"/><path d="M296.7 58.68c0 27.78-31 50.3-69.21 50.3-13.11 0-23.27-4-36-1s-25.4 9.25-36.89 15.13c3.24-9.3 15.17-27.39 14.35-36.85-.8-9.07-10.71-16.48-10.71-27.58 0-27.78 31-50.3 69.21-50.3s69.25 22.51 69.25 50.3z" stroke-linecap="round" stroke-linejoin="round" stroke-width="16.74" stroke="#3fa9f5" fill="#fff"/><circle class="cls-1" cx="199.86" cy="61.59" r="9.74"/><circle class="cls-1" cx="227.97" cy="61.59" r="9.74"/><circle class="cls-1" cx="253.86" cy="61.59" r="9.74"/></svg>