<svg id="Layer_1" data-name="Layer 1" xmlns="http://www.w3.org/2000/svg" viewBox="0 0 525.68 513.53"><defs><style>.cls-2{fill:#3fa9f5}</style></defs><path d="M488.46 137.53c18 0 32.54 12.4 32.54 27.68v327.11c0 15.29-14.57 27.68-32.54 27.68H104c-18 0-32.55-12.39-32.55-27.68V165.21c0-15.28 14.57-27.68 32.55-27.68h384.46m0-20.88H104a56.3 56.3 0 00-36.55 13.08 46.78 46.78 0 00-16.88 35.48v327.11a46.78 46.78 0 0016.86 35.48A56.31 56.31 0 00104 540.89h384.46A56.3 56.3 0 00525 527.8a46.78 46.78 0 0016.88-35.48V165.21A46.78 46.78 0 00525 129.73a56.29 56.29 0 00-36.54-13.08z" transform="translate(-33.37 -44.53)" fill="#005eb8"/><path class="cls-2" d="M488.46 137.53c18 0 32.54 12.4 32.54 27.68v327.11c0 15.29-14.57 27.68-32.54 27.68H104c-18 0-32.55-12.39-32.55-27.68V165.21c0-15.28 14.57-27.68 32.55-27.68h384.46m0-38.06H104a73.51 73.51 0 00-47.7 17.18 63.93 63.93 0 00-22.93 48.56v327.11a63.9 63.9 0 0022.93 48.56 73.51 73.51 0 0047.7 17.18h384.46a73.47 73.47 0 0047.67-17.18 63.92 63.92 0 0022.93-48.56V165.21a63.93 63.93 0 00-22.93-48.56 73.47 73.47 0 00-47.67-17.18z" transform="translate(-33.37 -44.53)"/><path class="cls-2" d="M298.69 183.41c-16.33 0-29.12-17.17-29.12-39.1V89.36c0-21.92 12.79-39.1 29.12-39.1s29.12 17.18 29.12 39.1v55c0 21.88-12.81 39.05-29.12 39.05z" transform="translate(-33.37 -44.53)"/><path class="cls-2" d="M298.69 56c12.92 0 23.38 14.94 23.38 33.36v55c0 18.43-10.46 33.37-23.38 33.37s-23.39-14.94-23.39-33.37v-55c0-18.42 10.47-33.36 23.39-33.36m0-11.47c-19.55 0-34.86 19.69-34.86 44.83v55c0 25.14 15.31 44.84 34.86 44.84s34.85-19.7 34.85-44.84v-55c0-25.14-15.31-44.83-34.85-44.83zm129.82 138.88c-16.33 0-29.12-17.17-29.12-39.1V89.36c0-21.92 12.79-39.1 29.12-39.1s29.13 17.18 29.13 39.1v55c0 21.88-12.8 39.05-29.13 39.05z" transform="translate(-33.37 -44.53)"/><path class="cls-2" d="M428.51 56c12.92 0 23.39 14.94 23.39 33.36v55c0 18.43-10.47 33.37-23.39 33.37s-23.39-14.94-23.39-33.37v-55c0-18.42 10.47-33.36 23.39-33.36m0-11.47c-19.55 0-34.86 19.69-34.86 44.83v55c0 25.14 15.31 44.84 34.86 44.84s34.86-19.7 34.86-44.84v-55c0-25.14-15.31-44.83-34.86-44.83z" transform="translate(-33.37 -44.53)"/><path d="M83.04 359.78h80.24v50.29H83.04zm139.68.01h80.24v50.29h-80.24zm139.23-.01h80.24v50.29h-80.24zM83.04 270.31h80.24v50.28H83.04zm139.68 0h80.24v50.28h-80.24zm139.23 0h80.24v50.28h-80.24zM222.72 180.8h80.24v50.29h-80.24zm139.23 0h80.24v50.29h-80.24zm-278.43 0h80.24v50.29H83.52z" stroke="#3fa9f5" stroke-miterlimit="10" stroke-width="19.03" fill="#3fa9f5"/><path class="cls-2" d="M165.49 183.41c-16.33 0-29.12-17.17-29.12-39.1V89.36c0-21.92 12.79-39.1 29.12-39.1s29.12 17.18 29.12 39.1v55c0 21.88-12.79 39.05-29.12 39.05z" transform="translate(-33.37 -44.53)"/><path class="cls-2" d="M165.49 56c12.92 0 23.38 14.94 23.38 33.36v55c0 18.43-10.46 33.37-23.38 33.37s-23.39-14.94-23.39-33.37v-55c0-18.42 10.47-33.36 23.39-33.36m0-11.47c-19.55 0-34.86 19.69-34.86 44.83v55c0 25.14 15.31 44.84 34.86 44.84s34.86-19.7 34.86-44.84v-55c0-25.14-15.32-44.83-34.86-44.83z" transform="translate(-33.37 -44.53)"/></svg>