<svg id="Layer_1" data-name="Layer 1" xmlns="http://www.w3.org/2000/svg" viewBox="0 0 460.32 375.88"><defs><style>.cls-1{fill:#fff;stroke:#3fa9f5;stroke-miterlimit:10;stroke-width:23.31px}</style></defs><path class="cls-1" d="M239 140.54a75 75 0 11-75-75 75 75 0 0175 75z" transform="translate(-21.77 -53.9)"/><path d="M232.22 374v-40.31A124.39 124.39 0 01356.61 209.3 124.39 124.39 0 01481 333.69V374" transform="translate(-21.77 -53.9)" fill="#3fa9f5"/><path d="M408.23 109.89a71.42 71.42 0 11-71.4-71.42 71.41 71.41 0 0171.4 71.42z" stroke-width="19.29" stroke="#3fa9f5" stroke-miterlimit="10" fill="#fff"/><path d="M261.23 114.39a82 82 0 0046.25-13.47c5.1-3.34 1.8-27.74 7.65-29.48s8.39 14.83 14 16.07c20.2 4.42 54 8.85 74.66 9" fill="none" stroke-width="19.29" stroke="#3fa9f5" stroke-miterlimit="10"/><path d="M447.35 310.78c0 28.79-98.06 52.13-219 52.13s-193.4-23.34-193.4-52.13 72.45-52.13 193.4-52.13 219 23.34 219 52.13z" stroke-width="25.94" stroke="#3fa9f5" stroke-miterlimit="10" fill="#fff"/><path class="cls-1" d="M294.63 326.19v90.62H124.05a90.63 90.63 0 01-90.63-90.63A109.87 109.87 0 01143.3 216.3h41.45a109.88 109.88 0 01109.88 109.89z" transform="translate(-21.77 -53.9)"/></svg>