<svg data-name="Layer 1" xmlns="http://www.w3.org/2000/svg" viewBox="0 0 196.28 277.85"><path d="M7.22 131.05c.94-10.21 1.43-19.13 2.66-28a116.34 116.34 0 0114.38-42.1q14-24.43 40.51-44.52a74 74 0 0110.92-6.55c5.61-2.84 11.94-3.41 18.93-1.75a152.37 152.37 0 0128.43 9.83c7.94 3.65 9.47 7.69 5 13.49-5.14 6.64-10.52 13.2-16.05 19.72-5.91 7-12.08 13.85-18.19 20.75a37.38 37.38 0 01-4.08 4c-4.23 3.57-8.77 4.56-15.61 3.25a96.48 96.48 0 01-9.88-2.53c-3.5-1.06-7-.87-8.78 1.24a37.87 37.87 0 00-5.07 7.9 103.54 103.54 0 00-8.14 24.39 133.28 133.28 0 00-2.65 36.62c.41 6.46 1.53 12.91 2.51 19.37a96.07 96.07 0 007.29 23.93 65.12 65.12 0 004.61 8.49c2 3.13 5.63 3.91 10.67 2.53 3-.82 6-1.73 9.05-2.37 6.74-1.36 12.32-.26 16.22 3.42a138 138 0 019.87 10.5c9.16 10.73 18.27 21.49 27.15 32.32a17.81 17.81 0 013.18 6.82c.68 2.46-1 4.68-4 6.29a122.21 122.21 0 01-35.52 12.23c-5.77 1.05-10.75-.43-15.24-2.52-7.07-3.28-12.39-7.56-17.59-11.9-13.11-10.92-23.64-22.73-31.39-35.36a115.45 115.45 0 01-14.09-33.55 182.69 182.69 0 01-4.45-35.59c-.28-7.23-.47-14.43-.65-20.35z" fill="none" stroke="#3fa9f5" stroke-miterlimit="10" stroke-width="14.41"/><path d="M143.78 37c-4.4 17.57-12.71 38.48-31.05 45.5-8.58 3.28-4.85 17.22 3.83 13.9 23.54-9 35.31-32.37 41.11-55.57 2.25-9-11.64-12.84-13.89-3.83zm38.36 19.84c-4.4 17.58-12.71 38.49-31 45.51-8.57 3.28-4.85 17.22 3.83 13.89 23.55-9 35.31-32.36 41.11-55.57 2.25-9-11.64-12.83-13.89-3.83z" fill="#3fa9f5"/></svg>