<svg width="280" height="348" xmlns="http://www.w3.org/2000/svg"><g fill="none" fill-rule="evenodd"><path d="M42.41 1.204C20.935 3.402 6.74 25.102 4.001 45.86 1.501 64.686 0 139.012 0 159.966c0 20.943 1.501 46.502 4.001 65.328 2.739 20.758 16.934 36.092 38.409 38.295a945.792 945.792 0 0080.267 4.84l40.265-.12c2.817-.071 5.638-.2 8.465-.286 26.599 53.947 78.772 80.016 78.772 80.016-18.391-31.202-25.77-59.845-27.991-83.081 4.901-.422 9.796-.858 14.675-1.369 21.464-2.203 35.664-17.537 38.404-38.295 2.5-18.826 4-44.385 4-65.328 0-20.954-1.5-95.28-4-114.106-2.74-20.758-16.94-36.097-38.404-38.294a943.61 943.61 0 00-97.223-5.017c-32.467 0-64.933-4.691-97.23-1.345" fill="#00ABF8"/><path d="M174.826 81.178h40.378v29.026c0 11.687-1.03 20.884-3.089 27.589-2.06 6.706-5.892 12.765-11.496 18.178-5.604 5.412-12.669 9.651-21.195 12.717l-7.903-16.813c8.047-2.682 13.819-6.418 17.315-11.208 3.497-4.79 5.293-11.16 5.389-19.111h-19.399V81.178zm-67.824 0h40.379v29.026c0 11.687-1.006 20.884-3.018 27.589-2.012 6.706-5.82 12.765-11.424 18.178-5.604 5.412-12.717 9.651-21.338 12.717l-7.904-16.813c8.143-2.682 13.939-6.418 17.387-11.208 3.449-4.79 5.269-11.16 5.461-19.111h-19.543V81.178z" fill="#FFF"/></g></svg>