<svg id="Layer_1" data-name="Layer 1" xmlns="http://www.w3.org/2000/svg" xmlns:xlink="http://www.w3.org/1999/xlink" viewBox="0 0 2098.31 2275.72"><defs><linearGradient id="linear-gradient" x1="571.11" y1="1671.67" x2="575.84" y2="1671.67" gradientTransform="matrix(0 398.17 398.17 0 -664497.62 -226765.03)" gradientUnits="userSpaceOnUse"><stop offset="0" stop-color="#4f3f92"/><stop offset=".02" stop-color="#4f3f92"/><stop offset=".5" stop-color="#6e3789"/><stop offset=".94" stop-color="#952882"/><stop offset="1" stop-color="#952882"/></linearGradient><linearGradient id="linear-gradient-2" x1="562.94" y1="1670.35" x2="567.67" y2="1670.35" gradientTransform="matrix(73.5 0 0 -73.5 -40943.74 124007.36)" gradientUnits="userSpaceOnUse"><stop offset="0" stop-color="#a6c83f"/><stop offset=".63" stop-color="#7cbb45"/><stop offset="1" stop-color="#68b548"/></linearGradient><linearGradient id="linear-gradient-3" x1="568.56" y1="1675.09" x2="573.29" y2="1675.09" gradientTransform="matrix(31.82 0 0 -31.82 -17073.62 54322.33)" gradientUnits="userSpaceOnUse"><stop offset="0" stop-color="#e0e269"/><stop offset="1" stop-color="#d4db47"/></linearGradient><linearGradient id="linear-gradient-4" x1="576.74" y1="1684.64" x2="581.47" y2="1684.64" gradientTransform="matrix(37.71 0 0 -37.71 -20710.4 63734.12)" gradientUnits="userSpaceOnUse"><stop offset="0" stop-color="#68b548"/><stop offset=".1" stop-color="#62b046"/><stop offset=".67" stop-color="#45973b"/><stop offset="1" stop-color="#3a8e37"/></linearGradient><linearGradient id="linear-gradient-5" x1="573.04" y1="1678.77" x2="577.77" y2="1678.77" gradientTransform="matrix(-73.98 0 0 73.98 44253.64 -123068.9)" gradientUnits="userSpaceOnUse"><stop offset="0" stop-color="#a6c83f"/><stop offset=".02" stop-color="#a6c83f"/><stop offset=".63" stop-color="#7ebc45"/><stop offset=".94" stop-color="#68b548"/><stop offset="1" stop-color="#68b548"/></linearGradient><linearGradient id="linear-gradient-6" x1="563.72" y1="1656.35" x2="568.45" y2="1656.35" gradientTransform="matrix(0 46.9 46.9 0 -77506.23 -25746.1)" xlink:href="#linear-gradient-5"/><linearGradient id="linear-gradient-7" x1="589.91" y1="1653.48" x2="594.64" y2="1653.48" gradientTransform="matrix(-27.2 0 0 27.2 16584.22 -43428.37)" xlink:href="#linear-gradient-3"/><linearGradient id="linear-gradient-8" x1="568.99" y1="1672.64" x2="573.72" y2="1672.64" gradientTransform="matrix(0 68.72 68.72 0 -113806.26 -38441.08)" gradientUnits="userSpaceOnUse"><stop offset="0" stop-color="#68b548"/><stop offset=".02" stop-color="#68b548"/><stop offset="1" stop-color="#419a3c"/></linearGradient><linearGradient id="linear-gradient-9" x1="575.5" y1="1681.07" x2="580.23" y2="1681.07" gradientTransform="matrix(0 37.12 37.12 0 -60815.36 -20675.92)" gradientUnits="userSpaceOnUse"><stop offset="0" stop-color="#a4ca65"/><stop offset=".02" stop-color="#a4ca65"/><stop offset="1" stop-color="#a6c83f"/></linearGradient><linearGradient id="linear-gradient-10" x1="569.4" y1="1668.39" x2="574.14" y2="1668.39" gradientTransform="matrix(0 43.89 43.89 0 -72285.43 -24160.85)" xlink:href="#linear-gradient-9"/><linearGradient id="linear-gradient-11" x1="582.48" y1="1662.45" x2="587.22" y2="1662.45" gradientTransform="matrix(37.46 0 0 -37.46 -20055.77 62871.84)" xlink:href="#linear-gradient-5"/><linearGradient id="linear-gradient-12" x1="575.68" y1="1685.61" x2="580.41" y2="1685.61" gradientTransform="matrix(0 -50.38 -50.38 0 85114.99 30297.25)" xlink:href="#linear-gradient-4"/><linearGradient id="linear-gradient-13" x1="564.7" y1="1672.29" x2="569.43" y2="1672.29" gradientTransform="matrix(-71.9 0 0 71.9 42078.48 -119881.8)" xlink:href="#linear-gradient-9"/><linearGradient id="linear-gradient-14" x1="557.53" y1="1684.02" x2="562.26" y2="1684.02" gradientTransform="matrix(-30.97 0 0 30.97 18975.52 -51738.73)" xlink:href="#linear-gradient-3"/><linearGradient id="linear-gradient-15" x1="577.81" y1="1682.73" x2="582.54" y2="1682.73" gradientTransform="matrix(0 28.05 28.05 0 -45622.61 -15096.15)" xlink:href="#linear-gradient-3"/><linearGradient id="linear-gradient-16" x1="576.93" y1="1657.6" x2="581.66" y2="1657.6" gradientTransform="matrix(0 34.88 34.88 0 -57042.32 -18649.07)" xlink:href="#linear-gradient-2"/><linearGradient id="linear-gradient-17" x1="557.8" y1="1665.23" x2="562.53" y2="1665.23" gradientTransform="matrix(0 28.68 28.68 0 -47129.99 -15244.88)" xlink:href="#linear-gradient-4"/><linearGradient id="linear-gradient-18" x1="554.33" y1="1675.89" x2="559.06" y2="1675.89" gradientTransform="matrix(39.08 0 0 -39.08 -21259.79 66377.16)" xlink:href="#linear-gradient-9"/><linearGradient id="linear-gradient-19" x1="574.86" y1="1673.14" x2="579.59" y2="1673.14" gradientTransform="matrix(0 56.95 56.95 0 -93899.02 -31703.12)" xlink:href="#linear-gradient-8"/><linearGradient id="linear-gradient-20" x1="578.09" y1="1672.55" x2="582.82" y2="1672.55" gradientTransform="matrix(0 58.2 58.2 0 -95683.06 -32464.57)" xlink:href="#linear-gradient-2"/><linearGradient id="linear-gradient-21" x1="576.87" y1="1681.79" x2="581.6" y2="1681.79" gradientTransform="matrix(29.55 0 0 -29.55 -15589.92 50420.43)" xlink:href="#linear-gradient-8"/><linearGradient id="linear-gradient-22" x1="563.59" y1="1681.22" x2="568.32" y2="1681.22" gradientTransform="matrix(47.18 0 0 -47.18 -26161.81 80229.01)" xlink:href="#linear-gradient-9"/><linearGradient id="linear-gradient-23" x1="562.68" y1="1668.34" x2="567.41" y2="1668.34" gradientTransform="matrix(0 -34.24 -34.24 0 58721.2 20220.51)" xlink:href="#linear-gradient-3"/><linearGradient id="linear-gradient-24" x1="559.49" y1="1665.33" x2="564.22" y2="1665.33" gradientTransform="matrix(-37.05 0 0 37.05 22070.89 -61274.71)" xlink:href="#linear-gradient-3"/><linearGradient id="linear-gradient-25" x1="559.49" y1="1665.22" x2="564.22" y2="1665.22" gradientTransform="matrix(-37.05 0 0 37.05 22012.71 -61378.4)" xlink:href="#linear-gradient-3"/><linearGradient id="linear-gradient-26" x1="559.49" y1="1665.67" x2="564.22" y2="1665.67" gradientTransform="matrix(-37.05 0 0 37.05 22011.54 -61413.22)" xlink:href="#linear-gradient-3"/><linearGradient id="linear-gradient-27" x1="559.6" y1="1664.11" x2="564.33" y2="1664.11" gradientTransform="matrix(0 33.71 33.71 0 -55374.71 -18355.77)" xlink:href="#linear-gradient-8"/><linearGradient id="linear-gradient-28" x1="572.09" y1="1666.06" x2="576.82" y2="1666.06" gradientTransform="matrix(60.56 0 0 -60.56 -33361.51 102433.54)" xlink:href="#linear-gradient-2"/><linearGradient id="linear-gradient-29" x1="547.5" y1="1664.88" x2="552.23" y2="1664.88" gradientTransform="matrix(34.93 0 0 -34.93 -18932.52 59551.16)" xlink:href="#linear-gradient-5"/><linearGradient id="linear-gradient-30" x1="567.36" y1="1687" x2="572.09" y2="1687" gradientTransform="matrix(-39.08 0 0 39.08 24059.65 -64653.31)" xlink:href="#linear-gradient-8"/><linearGradient id="linear-gradient-31" x1="557" y1="1661.63" x2="561.73" y2="1661.63" gradientTransform="matrix(0 21.64 21.64 0 -35156.85 -10941.64)" xlink:href="#linear-gradient-8"/><linearGradient id="linear-gradient-32" x1="561.84" y1="1671.91" x2="566.57" y2="1671.91" gradientTransform="matrix(-24.99 0 0 24.99 15501.43 -41004.3)" xlink:href="#linear-gradient-4"/><linearGradient id="linear-gradient-33" x1="559.75" y1="1662.34" x2="564.48" y2="1662.34" gradientTransform="matrix(-23.07 0 0 23.07 13966.08 -37730.08)" xlink:href="#linear-gradient-5"/><linearGradient id="linear-gradient-34" x1="578.82" y1="1673.65" x2="583.55" y2="1673.65" gradientTransform="matrix(50.34 0 0 -50.34 -27425.65 85228.68)" xlink:href="#linear-gradient-4"/><linearGradient id="linear-gradient-35" x1="569.34" y1="1654.16" x2="574.07" y2="1654.16" gradientTransform="matrix(25.62 0 0 -25.62 -13396.37 44041.33)" xlink:href="#linear-gradient-8"/><linearGradient id="linear-gradient-36" x1="571.51" y1="1652.53" x2="576.24" y2="1652.53" gradientTransform="matrix(-30.51 0 0 30.51 17998.54 -49859.14)" xlink:href="#linear-gradient-9"/><linearGradient id="linear-gradient-37" x1="567.97" y1="1664.29" x2="572.7" y2="1664.29" gradientTransform="matrix(-71.31 0 0 71.31 41394.62 -118483.99)" xlink:href="#linear-gradient-5"/><linearGradient id="linear-gradient-38" x1="598.05" y1="1674.94" x2="602.78" y2="1674.94" gradientTransform="matrix(0 -26.92 -26.92 0 45429.48 16583.81)" xlink:href="#linear-gradient-5"/><linearGradient id="linear-gradient-39" x1="557.67" y1="1672.27" x2="562.4" y2="1672.27" gradientTransform="rotate(90 56665.845 28661.575) scale(50.71)" xlink:href="#linear-gradient-8"/><linearGradient id="linear-gradient-40" x1="579.56" y1="1657.63" x2="584.29" y2="1657.63" gradientTransform="matrix(-48.07 0 0 48.07 28174.26 -78277.27)" xlink:href="#linear-gradient-3"/><linearGradient id="linear-gradient-41" x1="569.87" y1="1650.43" x2="574.6" y2="1650.43" gradientTransform="matrix(0 29.74 29.74 0 -48595.89 -15603.01)" xlink:href="#linear-gradient-2"/><linearGradient id="linear-gradient-42" x1="561.87" y1="1664.87" x2="566.6" y2="1664.87" gradientTransform="matrix(0 67.13 67.13 0 -111481.46 -37260.05)" xlink:href="#linear-gradient-3"/><clipPath id="clip-path" transform="translate(101.59 153.34)"><path class="cls-1" d="M977.2 221a4 4 0 00.62 5.59 217.75 217.75 0 0126.77 25.54 238.41 238.41 0 0151.5 95.43c-.66.61-1.34 1.19-2 1.8a897.41 897.41 0 00-118.38 134.26q-23.71 33.08-44.49 68.3a272.69 272.69 0 00-21.17-56.72 262.29 262.29 0 00-51-69c-1.11-1.08-2.27-2.11-3.39-3.18a313.69 313.69 0 0116.46-90.85 356.54 356.54 0 0141.68-84.62 2.8 2.8 0 00-4.58-3.23 364.65 364.65 0 00-46.47 84.47 339 339 0 00-14.24 46.44 317.8 317.8 0 00-6.11 36.08 288.69 288.69 0 00-52.81-34.53 304.24 304.24 0 00-80.15-27.59 4.35 4.35 0 00-1.78 8.52 294 294 0 0176.6 29.2 272.66 272.66 0 0164.74 49.3 246.48 246.48 0 0145.82 66.45 260.24 260.24 0 0121.81 74.83 916.09 916.09 0 00-78.55 192.11q-23.46-37.58-49-73.71a1565.38 1565.38 0 00-294-313.28 4.3 4.3 0 00-5.61 6.51c104.29 96.74 195 207.14 268.24 327.45a1504.93 1504.93 0 0196.79 187 790.37 790.37 0 00-239.1-95.43q-8.88-1.95-17.8-3.68a354.42 354.42 0 00-34.93-62 389.69 389.69 0 00-48.4-56.46 406.93 406.93 0 00-122.66-81.39 3.1 3.1 0 00-2.54 5.66 397.71 397.71 0 01116.54 84.35A376.07 376.07 0 01510.06 751a341.15 341.15 0 0126.47 49.69 766.54 766.54 0 00-267.29 2.61 3.1 3.1 0 001 6.12 756.92 756.92 0 01453.67 81.2 360.32 360.32 0 00-55.82 25A394.54 394.54 0 00606.14 958a411.35 411.35 0 00-95 114.31 3.14 3.14 0 005.42 3.16 402 402 0 0197.11-108.12A380.48 380.48 0 01675 928.69a341.82 341.82 0 0167.42-25.54 3.18 3.18 0 00.33-.1 8.5 8.5 0 002.11-1 745.26 745.26 0 0191.21 61c.25.19.56.43.82.61a19.44 19.44 0 002.52 1.47q25.41 67.14 44.44 136.22 7 25.2 13.1 50.62 6.32 25.35 11.75 50.89c7.25 34 13.28 68.31 18.85 102.62l.86 5a751.58 751.58 0 00-141.9-69.48c-66.17-24.12-135.74-38.73-205.82-42.15a639 639 0 00-68.37.28 430.38 430.38 0 00-53.89-59.41 471.11 471.11 0 00-71.78-54 492.12 492.12 0 00-166-64.23 3.76 3.76 0 00-1.51 7.36A481.67 481.67 0 01379.46 1097a456.47 456.47 0 0167.76 54.55 414.78 414.78 0 0143 49.25 604.39 604.39 0 00-117 22.51 588.89 588.89 0 00-185 93.29 3.76 3.76 0 004.37 6.11 576.54 576.54 0 01185.22-82.84c65.72-16.31 134-20.67 200.94-14.2a664 664 0 01155.8 34.59 377.36 377.36 0 00-60.54 39 482 482 0 00-117.52 134.89c-15 25.88-27.36 53.36-35.4 82.22a3.76 3.76 0 007.2 2.14c9-27.74 22.11-54 37.71-78.59a467.31 467.31 0 01119-126c23.5-16.83 48.5-31.22 75.14-41.53l.43-.17a11.2 11.2 0 002.22-1.34q5.21 2.07 10.37 4.23a711.29 711.29 0 01165.71 97.7l1.63 9.89q2.16 12.88 4.13 25.82c5.21 34.5 14.8 53.62 14.8 272.88s-50.63 357.09-146.65 440.94c91-10 159.83-44.43 159.83-44.43s40.14 33.68 123.26 38c-43-35.83-45.86-51.62-45.86-51.62s60.21 36.55 149.79 51.6c-99.83-77.22-131.51-183.12-140-327-10.53-178.33-2-308 12.54-386.05q5.13-28.1 11.47-55.93 7.44-32.67 16.64-64.87a405.89 405.89 0 0170.61-34.29 513.86 513.86 0 0192.35-24.78 609.74 609.74 0 0199.91-8.79 244.75 244.75 0 0161.5 46.35 280.66 280.66 0 0149.47 70.49c25.81 51.93 36.92 111.42 32.51 169.94a3.5 3.5 0 007 .67c7-59.51-1.66-121.27-26.38-176.77a297.2 297.2 0 00-49.21-76.72 267.48 267.48 0 00-35.21-33q26.65 1.43 53.18 5a696.73 696.73 0 01353.2 155.33 3 3 0 004-4.6 710.63 710.63 0 00-353.85-172.27c-63.32-11-128.43-13.51-192.86-5.8a394 394 0 0126.33-41.71 428 428 0 0140.43-48 467.15 467.15 0 0199.46-77.47 3.66 3.66 0 00-3.54-6.41 477.39 477.39 0 00-105 74.6 446.16 446.16 0 00-44 47.76 411.08 411.08 0 00-36.34 54.11l-.07.12-.12.23a537.31 537.31 0 00-83.84 20.16 469.2 469.2 0 00-44.61 17.32q17.06-52.56 38.69-103.52A1291 1291 0 011274 909.2a728.12 728.12 0 01180.24-40.34 299.12 299.12 0 0142.15 47.22 334.42 334.42 0 0132.23 55.26 355.66 355.66 0 0132 124.55 2.77 2.77 0 005.54-.21 364.78 364.78 0 00-25.61-129.47 350.05 350.05 0 00-30.34-59.53 322.93 322.93 0 00-29.91-39.82q29.78-1.74 59.7-1.1a726.36 726.36 0 01282.29 64.14 3 3 0 002.61-5.38 736 736 0 00-222.79-72.94 328.7 328.7 0 0140.61-41.39 362.81 362.81 0 0156.63-39.64 383 383 0 01130.88-45.48 3 3 0 00-.78-5.93 391.87 391.87 0 00-135.59 41.28 376 376 0 00-60.21 38.73 340.29 340.29 0 00-51 49.58c-13.8-1.81-27.64-3.29-41.53-4.34a761.62 761.62 0 00-234.49 18.84A1299.44 1299.44 0 011403 747.72c26.25-27.94 53.72-54.82 82.47-80.32a1152.75 1152.75 0 0189.69-72.58c62.25-45.32 129-85.1 200.82-114.61a4.31 4.31 0 00-2.84-8.12c-18.85 5.48-37.46 12-55.81 19.06s-36.48 14.88-54.26 23.37c-27.3 13-54.09 27.2-80.14 42.68a288.71 288.71 0 00-24.16-70.75 260.1 260.1 0 00-23.77-38.88 238.82 238.82 0 00-30.33-33.78l-.06-.06a4 4 0 00-5.52 5.72 231.05 231.05 0 0127.55 34 248.57 248.57 0 0120.83 38.3 275.27 275.27 0 0120.44 74.61c-2.81 1.75-5.63 3.49-8.43 5.27a1177.57 1177.57 0 00-96.82 68.44q-40.14 31.77-77.55 66.94a250 250 0 00-18.23-54.33 267 267 0 00-39.44-60.61 282.86 282.86 0 00-53.44-47.93 260.25 260.25 0 00-63.58-32.32h-.07a4 4 0 00-2.74 7.46 250.34 250.34 0 0159.66 34.15 269.3 269.3 0 0148.55 48.16 249.64 249.64 0 0134.18 58.53 228.91 228.91 0 0116.14 65.07A1254.49 1254.49 0 001147.81 1012a349.4 349.4 0 00-10.88-60.63 298.12 298.12 0 00-33.33-77.32 312.09 312.09 0 01-1.68-60.27 294.1 294.1 0 0110.26-59.67 257.32 257.32 0 0123.09-56 228.83 228.83 0 0136.44-48.58 2.89 2.89 0 00-4-4.13 235.69 235.69 0 00-39.35 48.6 266.71 266.71 0 00-26 57.11 313.86 313.86 0 00-14.64 99.89 250.19 250.19 0 00-49.87-49 235.93 235.93 0 00-81.26-38.47h-.1a4.49 4.49 0 00-2.42 8.64 224.62 224.62 0 0175.58 40.49 237.74 237.74 0 0155 64.9 276 276 0 0130.54 79.25 336.66 336.66 0 017.39 84.72v.69c-.26 10.29-13.93 45.74-22.24 64.24q-24.47 54.6-43.85 111.33c-12.93 37.76-23.88 76.18-33.23 115q-4.08 17-7.71 34.1c-.53-6.73-1.13-13.46-1.86-20.19-2-18.16-5.05-36.21-8.72-54.12q-11.44-53.64-25.64-106.49t-32.25-104.43a1555.5 1555.5 0 00-85.49-200.36q-15.13-29.44-31.59-58.13a22.69 22.69 0 001-3.68c18.5-104.88 56.84-206.83 112.24-299.08a7.62 7.62 0 00.93-.18 222.83 222.83 0 0163.22-9 240.45 240.45 0 0163.67 8.55 225.51 225.51 0 0159.12 25.54 188.72 188.72 0 0148.41 42.51 2.68 2.68 0 004.25-3.27 195 195 0 00-48.62-45.56 233.29 233.29 0 00-60.48-28.42 251.5 251.5 0 00-66.15-11 238.73 238.73 0 00-54.29 4.51c1.26-2 2.47-4 3.74-6A874.84 874.84 0 011200 248a3.6 3.6 0 00-3.91-6A892.41 892.41 0 001066 338.57a248.67 248.67 0 00-54.76-92.57 225 225 0 00-28.48-25.7l-.06-.06a4 4 0 00-2.39-.8 4 4 0 00-3.11 1.5"/></clipPath><clipPath id="clip-path-2" transform="translate(101.59 153.34)"><path class="cls-1" d="M550.74 985.85a69.26 69.26 0 00-8.6 138l15.43.11c-2.05 17.16-7.19 36.27-17.09 57 0 0 39.82-13.13 67.46-56.63l158.59-.26a69.27 69.27 0 00-6.61-138.22z"/></clipPath><clipPath id="clip-path-3" transform="translate(101.59 153.34)"><path class="cls-1" d="M1028.47 956.86a41.64 41.64 0 00-8.59-.52c-31.5 1.44-55.74 38.45-54.12 82.66s28.45 78.91 60 77.48 55.73-38.44 54.12-82.66c-1-28.88-12.86-53.69-29.72-67a47.69 47.69 0 0119.45-29.88s-24.4.12-41.09 20"/></clipPath><clipPath id="clip-path-4" transform="translate(101.59 153.34)"><path class="cls-1" d="M1139.14 201.81a46.45 46.45 0 00.31 7.66c-31.41 18.18-31.58 52.75-31.58 52.75 14.1-19.63 33.72-23.1 45.69-23.17 15.56 17.37 42.26 29.34 73.08 30.47 49.95 1.82 91.74-25.55 93.37-61.13s-37.57-65.88-87.52-67.71c-1.57-.05-3.12-.08-4.68-.08-47.84 0-87.1 26.75-88.67 61.21"/></clipPath><clipPath id="clip-path-5" transform="translate(101.59 153.34)"><path class="cls-1" d="M1704.43 963.59a38.49 38.49 0 00-38.49 38.5v135.45a38.49 38.49 0 0038.49 38.5h67.06c6.27 21 10.24 58-14.12 104 0 0 60.35-37.48 69-104h70.16a38.5 38.5 0 0038.52-38.5v-135.45a38.51 38.51 0 00-38.5-38.51z"/></clipPath><clipPath id="clip-path-6" transform="translate(101.59 153.34)"><path class="cls-1" d="M109.58 681.47a26.85 26.85 0 00-26.84 26.84v94.42a26.84 26.84 0 0026.85 26.82h48.91c6 46.35 48.06 72.49 48.06 72.49-17-32-14.21-57.81-9.83-72.49h46.74a26.81 26.81 0 0026.82-26.82v-94.42a26.83 26.83 0 00-26.82-26.84z"/></clipPath><clipPath id="clip-path-7" transform="translate(101.59 153.34)"><path class="cls-1" d="M483.06 1485.88a15.27 15.27 0 00-15.27 15.27v53.71a15.25 15.25 0 0015.26 15.27h27.83c3.41 26.36 27.34 41.24 27.34 41.24-9.66-18.24-8.08-32.9-5.6-41.24h26.59a15.26 15.26 0 0015.27-15.27v-53.71a15.27 15.27 0 00-15.27-15.27z"/></clipPath><clipPath id="clip-path-8" transform="translate(101.59 153.34)"><path class="cls-1" d="M1059.38 553.07c-18.62 2.07-30.93 16.54-33.3 36.12a548.77 548.77 0 000 123.23c2.37 19.58 14.68 34 33.3 36.12q34.69 3.9 69.58 4.56l34.91-.11c2.44-.07 4.89-.19 7.34-.27 23.06 50.88 68.29 75.47 68.29 75.47-16-29.43-22.34-56.45-24.27-78.36 4.25-.4 8.49-.81 12.72-1.29 18.61-2.08 30.92-16.54 33.29-36.12a548.77 548.77 0 000-123.23c-2.37-19.58-14.68-34.05-33.29-36.12a753.31 753.31 0 00-168.57 0"/></clipPath><clipPath id="clip-path-9" transform="translate(101.59 153.34)"><path class="cls-1" d="M1551.82 645a46.84 46.84 0 00-4.47 93.47l41.08.17 15-.12c18.45 26 42.73 34 42.73 34a125.29 125.29 0 01-11-34.85 46.82 46.82 0 00-9.39-92.7z"/></clipPath><clipPath id="clip-path-10" transform="translate(101.59 153.34)"><path class="cls-1" d="M877.94 760.33v94.15a59.56 59.56 0 0084.17 54.32c24.53 16.6 46.75 19.15 46.75 19.15a139 139 0 01-26-34.78 59.27 59.27 0 0014.06-33l.23-52.31-.43-54.94a59.64 59.64 0 00-118.81 7.41"/></clipPath><clipPath id="clip-path-11" transform="translate(101.59 153.34)"><path class="cls-1" d="M1695.3 620.84c2.06 47.08 42.86 77.92 94.89 75.64 46.57-2.05 81.77-33.47 80.44-74.11-1.15-35.69-29.21-58.29-58.12-64.13-21-4.26-34.63-5.81-38.69-15.47-4.53-10.81 9.5-37.16 9.5-37.16s-90.88 49.68-88 115.23"/></clipPath><clipPath id="clip-path-12" transform="translate(101.59 153.34)"><path class="cls-1" d="M30.59 1034c0 65.07 73.69 117.81 164.62 117.81a222.89 222.89 0 0056.91-7.24l76.3 49.48-19.38-75c31.28-21.44 50.79-51.61 50.79-85.06 0-65.07-73.7-117.82-164.62-117.82S30.59 969 30.59 1034"/></clipPath><clipPath id="clip-path-13" transform="translate(101.59 153.34)"><path class="cls-1" d="M1293.83 333.82c0 31.47 18.36 59.87 47.8 80.05l-18.24 70.58 71.81-46.58a209.51 209.51 0 0053.55 6.81c85.58 0 154.94-49.63 154.94-110.86s-69.36-110.88-154.94-110.88-154.92 49.64-154.92 110.88"/></clipPath><clipPath id="clip-path-14" transform="translate(101.59 153.34)"><path class="cls-1" d="M1623.31 348.89a2.15 2.15 0 00-2.14 2.13v90.62a2.15 2.15 0 002.14 2.14h73l-10.77 46.42 31.21-46.42h26.6a2.15 2.15 0 002.14-2.14V351a2.15 2.15 0 00-2.14-2.13z"/></clipPath><clipPath id="clip-path-15" transform="translate(101.59 153.34)"><path class="cls-1" d="M1510.7 1053.91a2.2 2.2 0 00-2.18 2.17v92.05a2.19 2.19 0 002.18 2.18h74.1l-10.94 47.15 31.7-47.15h27a2.18 2.18 0 002.17-2.18v-92.05a2.19 2.19 0 00-2.17-2.17z"/></clipPath><clipPath id="clip-path-16" transform="translate(101.59 153.34)"><path class="cls-1" d="M768.23 1347a63.79 63.79 0 00-49.79 35 82.91 82.91 0 00-16.05-.57c-41.5 2.59-73.26 35.43-70.9 73.39 2.31 37 36.22 65.2 76.41 64.17 5.66 18 23.34 30.89 44.05 30.5a45.64 45.64 0 0038.29-21.49c32.53 43 88.89 45.07 88.89 45.07-28-19.25-39.49-42.55-44-60.82a72.75 72.75 0 0010-.66c37.49-5.1 64-37.77 59.21-73-4.53-33.28-35.41-56.9-70.44-55.07-9.83-22.15-32.39-37-57.78-37a65.86 65.86 0 00-7.89.47"/></clipPath><clipPath id="clip-path-17" transform="translate(101.59 153.34)"><path class="cls-1" d="M560.38 747.26c0 26.5 33.06 48 73.84 48a111.34 111.34 0 0017.78-1.48c9.29 10.3 24.71 22.54 46.9 25 0 0-15-10.69-19.7-33.56 17.53-8.78 28.87-22.51 28.87-38 0-26.5-33-48-73.83-48s-73.84 21.47-73.84 48"/></clipPath><clipPath id="clip-path-18" transform="translate(101.59 153.34)"><path class="cls-1" d="M317.77 692.87c-10 .21-18 8.74-18 19.21v24.73c0 10.62 8.24 19.21 18.41 19.21h97.63v.13s37.07-2.24 68.84 24.4c0 0-17-32.24-50.46-45.33v-23.14c0-10.47-8-19-18-19.21z"/></clipPath><clipPath id="clip-path-19" transform="translate(101.59 153.34)"><path class="cls-1" d="M1490.78 1169.59a8.31 8.31 0 10.35 0h-.35m-30-16.19a12.22 12.22 0 10.48 0h-.48m-33.4-35.71a20.07 20.07 0 10.83 0h-.83m-69.68-208a41.1 41.1 0 00-34.49 36.37 34 34 0 00-6.8-1 35.28 35.28 0 00-7.08.38 35 35 0 00-29.13 40 31.89 31.89 0 001.18 5 35.17 35.17 0 001.85 4.71 30.15 30.15 0 009.2 58.53 33.78 33.78 0 00-.33 5 36.39 36.39 0 00.42 5.17 35 35 0 0046.83 27.32 34.44 34.44 0 006.18-3 41.08 41.08 0 0078.47-12.32 35 35 0 006.81 1 35 35 0 0036.21-40.36 33.73 33.73 0 00-1.18-5 35.44 35.44 0 00-1.85-4.69 30.19 30.19 0 0019.64-33.07 30.18 30.18 0 00-28.84-25.47 36.62 36.62 0 00.33-5 35 35 0 00-40.4-34.29 36 36 0 00-6.86 1.81 34.38 34.38 0 00-6.17 3 41.06 41.06 0 00-44-24.06"/></clipPath><clipPath id="clip-path-20" transform="translate(101.59 153.34)"><path class="cls-1" d="M1574.81 1382.3a62.18 62.18 0 0042.29 115.7 52.79 52.79 0 0098-4.35 49.94 49.94 0 0035.69-91c.17-.62.39-1.24.54-1.88a50 50 0 00-81.69-48.83 49.85 49.85 0 00-70.27-13.47c-15.34-12.17-30-31.89-29.69-62.83 0 0-32.84 57.74 5.11 106.6"/></clipPath><clipPath id="clip-path-21" transform="translate(101.59 153.34)"><path class="cls-1" d="M1412.22 482.8a32.51 32.51 0 00-17.33 23.14 38 38 0 00-16.37 4.1 38.37 38.37 0 007.91 71.47c-15.64 34.84 12.51 64.68 12.51 64.68-4.72-18.51 1.21-32.47 8.62-42a30.75 30.75 0 0040.17-18.34 30.85 30.85 0 0041.85-41.22c-.18-.36-.39-.7-.6-1.06a30.82 30.82 0 00-34.69-49.32 32.57 32.57 0 00-42.07-11.43"/></clipPath><clipPath id="clip-path-22" transform="translate(101.59 153.34)"><path class="cls-1" d="M483.35 871.55a35.82 35.82 0 00-51.4 1.57 35.9 35.9 0 00-63.51 25.36c0 .48.11.94.16 1.41a35.88 35.88 0 0015 68.59 37.94 37.94 0 0069.06 14.23 44.68 44.68 0 0043.15-77.31c32.48-30.36 15.74-75.07 15.74-75.07-3.27 22-15.93 34.32-28.2 41.22"/></clipPath><clipPath id="clip-path-23" transform="translate(101.59 153.34)"><path class="cls-1" d="M1524.68 895.17a5.39 5.39 0 102.49-.61 5.41 5.41 0 00-2.49.61m57.49-4.66a19.67 19.67 0 00-3 32.78 41.38 41.38 0 003.64 28.64c10.41 20 34.58 28.08 54 18s26.68-34.53 16.27-54.57c-9.32-17.89-29.6-26.17-47.66-20.54a19.44 19.44 0 00-14.43-6.45 19.11 19.11 0 00-8.84 2.17m-34.32-3.64a10.77 10.77 0 105-1.22 10.79 10.79 0 00-5 1.22"/></clipPath><clipPath id="clip-path-24" transform="translate(101.59 153.34)"><path class="cls-1" d="M1171 338.42a34.29 34.29 0 00-30 33.52c-34.22 6.23-57.92 39.08-53.39 75.13 4.65 37.31 37.74 63.9 73.89 59.4s61.68-38.38 57-75.67a69.29 69.29 0 00-16-36.45 34.88 34.88 0 00-27.37-56.19 33.74 33.74 0 00-4.24.26"/></clipPath><clipPath id="clip-path-25" transform="translate(101.59 153.34)"><path class="cls-1" d="M1217.39 298.52a19.19 19.19 0 102.36-.14 19.15 19.15 0 00-2.36.14"/></clipPath><clipPath id="clip-path-26" transform="translate(101.59 153.34)"><path class="cls-1" d="M1259.56 287.33a9.59 9.59 0 101.19-.07 11.87 11.87 0 00-1.19.07"/></clipPath><clipPath id="clip-path-27" transform="translate(101.59 153.34)"><path class="cls-1" d="M654 458.94a76.48 76.48 0 0067.8 116.68l50.2 75.09-10.19-88.17A76.48 76.48 0 10654 458.94"/></clipPath><clipPath id="clip-path-28" transform="translate(101.59 153.34)"><path class="cls-1" d="M1279.3 1270.36a105.21 105.21 0 1072.4 187.83l116.54 43.13-82.49-90a105.19 105.19 0 00-98.7-141.25c-2.57 0-5.14.09-7.75.28"/></clipPath><clipPath id="clip-path-29" transform="translate(101.59 153.34)"><path class="cls-1" d="M97.6 1211.77a55.8 55.8 0 10103.89 24.58l53.77-38.09-64.12 9.15a55.74 55.74 0 00-93.54 4.36"/></clipPath><clipPath id="clip-path-30" transform="translate(101.59 153.34)"><path class="cls-1" d="M1835.36 1249a49.66 49.66 0 002.78 28.93l-34.63 47.77 51.71-26.21a49.93 49.93 0 10-19.86-50.49"/></clipPath><clipPath id="clip-path-31" transform="translate(101.59 153.34)"><path class="cls-1" d="M804.75 1139.8a45.72 45.72 0 00-17.39 20.39l-53.88 7.67 50.52 17.48a46 46 0 1020.73-45.54"/></clipPath><clipPath id="clip-path-32" transform="translate(101.59 153.34)"><path class="cls-1" d="M1428.34 764.78a41.38 41.38 0 00-.12 24.19l-32.66 36.64 45-17.36a41.55 41.55 0 1039.79-70.84 41.51 41.51 0 00-52 27.37"/></clipPath><clipPath id="clip-path-33" transform="translate(101.59 153.34)"><path class="cls-1" d="M957 591.62a42.47 42.47 0 1022.34 7.07l1.66-50.22z"/></clipPath><clipPath id="clip-path-34" transform="translate(101.59 153.34)"><path class="cls-1" d="M1835.99 766.63l-27.15-12.48-2.31 29.8-29.59 4.17 14.16 26.32-97.18 26.77 100.68 7.25-8.49 28.65 29.82-1.94 8.33 28.69 24.05-17.76 22.55 19.64 10.62-27.94 29.55 4.32-6.17-29.23 27.23-12.36-21-21.26 16.23-25.11-29.19-6.55.09-29.87-28.07 10.28-16.08-25.21-18.08 23.82z"/></clipPath><clipPath id="clip-path-35" transform="translate(101.59 153.34)"><path class="cls-1" d="M1091 1527.68a59.88 59.88 0 002.31 8.3c.14.43.27.87.42 1.3v-.08a60 60 0 1041.45-79.39v-.08c-15.55 4.21-22.65-4.06-18-25.67-28.39 43.62-32.19 70.52-26.24 95.62"/></clipPath><clipPath id="clip-path-36" transform="translate(101.59 153.34)"><path class="cls-1" d="M464.51 523.08a61.55 61.55 0 00-.73 69.72h-.1c9.46 13.54 3.94 23.28-18.54 26.32 52 12.27 79.28 6.6 101.47-7.86a60.64 60.64 0 007.2-5.11l1.13-.86h-.11a61.34 61.34 0 00-4.53-97.09 61.59 61.59 0 00-85.79 14.9"/></clipPath><clipPath id="clip-path-37" transform="translate(101.59 153.34)"><path class="cls-1" d="M806.16 87.68c-48-2.49-90.22 29.84-96.42 75.4-6.56 48.18 29.73 92.9 81 99.88a100.16 100.16 0 0013.75.91c-6.23 25-22 56.91-60.29 83.26 0 0 77.16-2.84 121.7-61.7 10.49 17.26 29.94 29.05 52.41 29.47 28.34.54 52.55-17.16 60.3-41.76 55 1.41 101.44-37.16 104.6-87.85 3.23-51.95-40.23-96.92-97.06-100.46a113.56 113.56 0 00-22 .77 87.37 87.37 0 00-68.18-47.95 89.49 89.49 0 00-10.71-.65c-34.75 0-65.64 20.36-79.1 50.68"/></clipPath><clipPath id="clip-path-38" transform="translate(101.59 153.34)"><path class="cls-1" d="M429.32 449.1a7.93 7.93 0 101.09-.08 8 8 0 00-1.09.08m-18.8-42a16 16 0 102.21-.15 16.64 16.64 0 00-2.21.15M303 313.56c-31.17 4.25-53.11 32.2-49 62.41s32.71 51.26 63.88 47a58 58 0 0030.36-13.7 29 29 0 1018.17-51.73c-5-26-28.46-44.53-55.35-44.53a59.29 59.29 0 00-8 .55"/></clipPath><clipPath id="clip-path-39" transform="translate(101.59 153.34)"><path class="cls-1" d="M376.32 255c0 59.23 70.71 107.24 157.94 107.24a229.84 229.84 0 0023.23-1.16c19.15 24 53.62 55.65 105.1 61.71 0 0-33.42-24.68-42.72-77.68 43.5-19.11 72.32-52.32 72.32-90.11 0-59.24-70.7-107.25-157.93-107.25S376.32 195.76 376.32 255"/></clipPath><clipPath id="clip-path-40" transform="translate(101.59 153.34)"><path class="cls-1" d="M284.66 1316.45a68.22 68.22 0 00-5.66 134.06l-.09.07c17.93 3.75 20.85 15.8 5 35.33 51.3-29.57 69.05-54.87 76-83.4a67.87 67.87 0 001.94-9.59c.08-.51.18-1 .25-1.56l-.09.08a68 68 0 00-67.7-75.68 69.28 69.28 0 00-9.69.69"/></clipPath><clipPath id="clip-path-41" transform="translate(101.59 153.34)"><path class="cls-1" d="M378.08 1334c-3.49 79.75 95.14 130.18 95.14 130.18s-11.62-21.63-6.11-34.79c4.93-11.75 21.48-13.65 47.07-18.81 35.17-7.11 69.29-34.6 70.71-78 1.61-49.42-41.22-87.65-97.86-90.14-1.75-.07-3.5-.11-5.26-.11-48.58 0-101 29.44-103.69 91.71"/></clipPath><clipPath id="clip-path-42" transform="translate(101.59 153.34)"><path class="cls-1" d="M230.05 490a30.64 30.64 0 00-57.15 15h-1.7a51.47 51.47 0 1030.44 92.95 85.2 85.2 0 00102.29 49.24c23.48 27.42 57.26 25.28 57.26 25.28-19.15-13.73-26.36-28.57-28.9-39.63a85.31 85.31 0 0019.92-21.75 62.15 62.15 0 10-10-111.63A58.09 58.09 0 00230.05 490"/></clipPath><style>.cls-1{fill:none}</style></defs><g clip-path="url(#clip-path)"><path fill="url(#linear-gradient)" d="M287.82 372.82h1646.71v1902.89H287.82z"/></g><g clip-path="url(#clip-path-2)"><path fill="url(#linear-gradient-2)" d="M583.05 1139.19h347.74v195.11H583.05z"/></g><g clip-path="url(#clip-path-3)"><path transform="rotate(-75.96 1171.865 1039.03)" fill="url(#linear-gradient-3)" d="M920.77 948.56h204.05v157.7H920.77z"/></g><g clip-path="url(#clip-path-4)"><path transform="rotate(-30.62 1545.547 97.095)" fill="url(#linear-gradient-4)" d="M1089.48 95.28h250.54v221.38h-250.54z"/></g><g clip-path="url(#clip-path-5)"><path transform="rotate(-87.1 1927.01 1143.99)" fill="url(#linear-gradient-5)" d="M1635.36 979.09h330.21v285.41h-330.21z"/></g><g clip-path="url(#clip-path-6)"><path transform="rotate(-15.08 806.612 484.83)" fill="url(#linear-gradient-6)" d="M57.27 660.87h238.49v261.78H57.27z"/></g><g clip-path="url(#clip-path-7)"><path transform="rotate(-88.64 650.373 1573.24)" fill="url(#linear-gradient-7)" d="M457.14 1493.8h127.99v109.65H457.14z"/></g><g clip-path="url(#clip-path-8)"><path transform="rotate(-21.61 1596.202 498.805)" fill="url(#linear-gradient-8)" d="M979.59 513.59h328.15v349.34H979.59z"/></g><g clip-path="url(#clip-path-9)"><path transform="rotate(-51.45 1798.544 679.99)" fill="url(#linear-gradient-9)" d="M1486.68 603.45h204.22v210.58h-204.22z"/></g><g clip-path="url(#clip-path-10)"><path transform="rotate(-12.18 1712.743 414.888)" fill="url(#linear-gradient-10)" d="M855.44 689.43h175.92V939.2H855.44z"/></g><g clip-path="url(#clip-path-11)"><path transform="rotate(-69.66 1943.07 605.887)" fill="url(#linear-gradient-11)" d="M1660.44 484.45h243.51v235.47h-243.51z"/></g><g clip-path="url(#clip-path-12)"><path transform="rotate(-36.03 481.72 975.57)" fill="url(#linear-gradient-12)" d="M-19.64 845.96h429.7v418.37h-429.7z"/></g><g clip-path="url(#clip-path-13)"><path transform="rotate(-66.74 1615.885 353.268)" fill="url(#linear-gradient-13)" d="M1267.45 159.72h362.63v387.95h-362.63z"/></g><g clip-path="url(#clip-path-14)"><path transform="rotate(-86 1814.937 438.681)" fill="url(#linear-gradient-14)" d="M1608.49 352.64h149.62v133.8h-149.62z"/></g><g clip-path="url(#clip-path-15)"><path transform="rotate(-3.98 3828.882 -259.566)" fill="url(#linear-gradient-15)" d="M1503.69 1049.7h135.9v151.97h-135.9z"/></g><g clip-path="url(#clip-path-16)"><path transform="rotate(-34.62 1066.069 1373.662)" fill="url(#linear-gradient-16)" d="M589.57 1287.07h359.11v345.5H589.57z"/></g><g clip-path="url(#clip-path-17)"><path transform="rotate(-47.03 861.298 719.033)" fill="url(#linear-gradient-17)" d="M540.16 664.29h188.12v189.53H540.16z"/></g><g clip-path="url(#clip-path-18)"><path fill="url(#linear-gradient-18)" d="M401.32 846.21h184.87v87.68H401.32z"/></g><g clip-path="url(#clip-path-19)"><path transform="rotate(-38.69 1650.221 979.703)" fill="url(#linear-gradient-19)" d="M1201.92 865.53h358.07v364.28h-358.07z"/></g><g clip-path="url(#clip-path-20)"><path transform="rotate(-42.21 1905.36 1349.816)" fill="url(#linear-gradient-20)" d="M1480.04 1228.11h352.26v353.43h-352.26z"/></g><g clip-path="url(#clip-path-21)"><path fill="url(#linear-gradient-21)" d="M1453.58 632.64h147.92v166.89h-147.92z"/></g><g clip-path="url(#clip-path-22)"><path transform="rotate(-47.12 664.027 875.91)" fill="url(#linear-gradient-22)" d="M312.98 791h248.83v249.41H312.98z"/></g><g clip-path="url(#clip-path-23)"><path transform="rotate(-66.82 1759.16 932.506)" fill="url(#linear-gradient-23)" d="M1520.85 848.77h142.83v168.12h-142.83z"/></g><g clip-path="url(#clip-path-24)"><path transform="rotate(-54.52 1352.73 402.656)" fill="url(#linear-gradient-24)" d="M1042.12 317.37h222.04v214.39h-222.04z"/></g><g clip-path="url(#clip-path-25)"><path transform="matrix(.58 -.81 .81 .58 354.35 1280.07)" fill="url(#linear-gradient-25)" d="M1191.93 290.12h55.66v55.93h-55.66z"/></g><g clip-path="url(#clip-path-26)"><path transform="rotate(-54.52 1460.315 275.2)" fill="url(#linear-gradient-26)" d="M1246.82 283.13h27.82v27.96h-27.82z"/></g><g clip-path="url(#clip-path-27)"><path transform="rotate(-15.49 1333.774 240.036)" fill="url(#linear-gradient-27)" d="M604.47 403.52h229.09v266.35H604.47z"/></g><g clip-path="url(#clip-path-28)"><path fill="url(#linear-gradient-28)" d="M1279.37 1423.42h290.45v231.24h-290.45z"/></g><g clip-path="url(#clip-path-29)"><path fill="url(#linear-gradient-29)" d="M183.68 1337.4h173.17v119.52H183.68z"/></g><g clip-path="url(#clip-path-30)"><path transform="rotate(-48.27 2092.888 1230.578)" fill="url(#linear-gradient-30)" d="M1782.56 1177.99h177.12v178.61h-177.12z"/></g><g clip-path="url(#clip-path-31)"><path transform="rotate(-85.01 942.296 1203.103)" fill="url(#linear-gradient-31)" d="M752.2 1103.55h111.12v156.57H752.2z"/></g><g clip-path="url(#clip-path-32)"><path transform="rotate(-27.69 1816.836 651.112)" fill="url(#linear-gradient-32)" d="M1381.44 713.04h147.21v135.05h-147.21z"/></g><g clip-path="url(#clip-path-33)"><path transform="rotate(-77.64 1101.79 628.997)" fill="url(#linear-gradient-33)" d="M879.98 553.92h151.54v123.06H879.98z"/></g><g clip-path="url(#clip-path-34)"><path fill="url(#linear-gradient-34)" d="M1795.51 896.15h238.17v162.92h-238.17z"/></g><g clip-path="url(#clip-path-35)"><path fill="url(#linear-gradient-35)" d="M1186.61 1585.4h132.9v152.03h-132.9z"/></g><g clip-path="url(#clip-path-36)"><path transform="rotate(-59.04 701.107 551.12)" fill="url(#linear-gradient-36)" d="M421.4 469.72h187.11v188.9H421.4z"/></g><g clip-path="url(#clip-path-37)"><path transform="rotate(-48.37 1116.28 155.643)" fill="url(#linear-gradient-37)" d="M651.61-54.2h486.46v492.53H651.61z"/></g><g clip-path="url(#clip-path-38)"><path transform="rotate(-51.06 555.673 359.588)" fill="url(#linear-gradient-38)" d="M225.66 267.82h237.47v242.92H225.66z"/></g><g clip-path="url(#clip-path-39)"><path transform="rotate(-44.11 774.267 236.567)" fill="url(#linear-gradient-39)" d="M325.14 76.6h418.23v417.33H325.14z"/></g><g clip-path="url(#clip-path-40)"><path transform="rotate(-89.1 420.736 1425.943)" fill="url(#linear-gradient-40)" d="M205.84 1328.87h172.34v143.93H205.84z"/></g><g clip-path="url(#clip-path-41)"><path transform="rotate(-36.28 765.244 1274.706)" fill="url(#linear-gradient-41)" d="M329.49 1201.09h302.12v304.26H329.49z"/></g><g clip-path="url(#clip-path-42)"><path transform="rotate(-29.08 624.278 443.543)" fill="url(#linear-gradient-42)" d="M85.33 388.15h385.18v349.21H85.33z"/></g></svg>