<svg data-name="Layer 1" xmlns="http://www.w3.org/2000/svg" viewBox="0 0 850.25 221.72"><path fill="#fe0000" d="M0 221.72V166h121.12v55.72z"/><path fill="#fe6100" d="M121.11 221.71v-55.72h121.12v55.72z"/><path fill="#fefe00" d="M242.23 221.72V166h121.12v55.72z"/><path fill="#017f01" d="M363.35 221.72V166h121.12v55.72z"/><path fill="#0000fe" d="M484.47 221.72V166h121.12v55.72z"/><path fill="#4b0081" d="M605.59 221.71v-55.72h121.12v55.72z"/><path fill="#bb30fd" d="M726.7 221.71v-55.72h121.12v55.72z"/><path d="M2.77 5.17h18.51v103.8H56l-1.74 14.17H2.76zm79.75 76.47v14c0 7.85 2 15.51 11 15.51s10.5-6.67 10.5-14.1v-.57h18.08v.51c0 9.94-2.58 27.59-28.27 27.59-25 0-29.42-13.53-29.42-31.91V61.19c0-13 5-30.24 29.47-30.24 21.77 0 28.57 13 28.57 30.17v20.52zm22.17-12.56V58.93c0-8.43-2-14.55-10.85-14.55-8.15 0-11.17 5.36-11.17 14.6v10.1zm25.07-36.72h11.65v-22h18.46v22h14v13.93h-14V103c0 4.45.8 8.32 7.33 8.32a31.26 31.26 0 006.14-.53v12c-3.41 1.33-8.5 1.63-12.32 1.63-12 0-19.61-3.66-19.61-18.6V46.29h-11.65zm55.95 8.54c3.47-12.6 6.06-27.72 6.12-40.9h16.94c-.43 15.93-5.54 33.51-9.29 40.9zm44.16 54.42v4.08c0 6.94 2.79 11.72 9.89 11.72 6.72 0 9.48-3.55 9.48-10.55s-2.39-11.19-14.94-18.17c-14.45-8-21.31-14.52-21.31-27.34 0-14.54 8.79-24.11 26.81-24.11 19.56 0 26.64 9.78 26.64 25.17v3.85H248.5v-5.35c0-6.9-2.54-10.24-8.67-10.24s-8.41 3.64-8.41 9.36c0 5.91 2.23 8.55 12.29 14.15C261.06 77.43 268 83.81 268 98.74c0 17-9.58 25.84-28.83 25.84-22.6 0-28-12.4-28-25.17v-4.06zM322 19.84h-22.24V5.17h63v14.67h-22.25v103.3H322zm93.75 85.9c0 5.91.06 14.25.41 17.38h-17a67.74 67.74 0 01-1.26-7c-3.54 6-9.61 8.37-17.47 8.37-15.71 0-22-12.22-22-26V96.9c0-21.6 16.5-28.1 35.56-28.1h3.35V56.07c0-7.58-1.26-12.08-8.49-12.08S380 48.67 380 54.92v1.87h-18.28v-1.62c0-12.95 5.87-24.22 27.75-24.22 19.68 0 26.28 9.77 26.28 23.9zm-18.08-24.75h-4.22c-10.63 0-17.33 3.62-17.33 15.67v1.47c0 7.11 2.81 12.49 10.12 12.49 8.2 0 11.43-5.22 11.43-18zm36.8 42.15V0H453v123.14zm55.37-50.25h.35c4.86-10.09 15.12-29.3 20.76-40.53h19.51L510.7 65.81l21.93 57.33h-20.21l-14.5-41.93-8.08 13.38v28.55h-18.37V0h18.37z" fill="#7b0079"/><path d="M587.06 5.18v118.35H575.4V5.18zm37.33 77.95l-11.24 40.4h-11.66l34-118.35h15.16l35.19 118.35H673.3l-11.41-40.4zm34.82-9c-9.1-31.42-14.68-50.65-16.41-59.38h-.44c-2 10.08-8.09 32.66-15.51 59.38zm40.61-68.95h33.53c21.3 0 35.57 11.66 35.57 32.13s-12.81 33.95-37.91 33.95h-19.53v52.27h-11.66zm11.66 57.31h18.35c17.65 0 27.08-8.17 27.08-25.23 0-13.53-8.29-23.28-25.17-23.28h-20.26zm95.77-48.26H775.9v-9h74.35v9h-31.34v109.3h-11.66z" fill="#6ba6f1"/></svg>