<svg data-name="Layer 1" xmlns="http://www.w3.org/2000/svg" viewBox="0 0 847.49 124.56"><path d="M0 5.17h18.52v103.8h34.77l-1.73 14.17H0zm79.76 76.47v14c0 7.85 2 15.51 11 15.51s10.5-6.67 10.5-14.1v-.57h18.08v.51c0 9.95-2.59 27.6-28.27 27.6-25 0-29.42-13.54-29.42-31.92V61.19c0-13 5-30.24 29.46-30.24 21.77 0 28.58 13 28.58 30.17v20.52zm22.17-12.56V58.93c0-8.43-2-14.55-10.85-14.55-8.16 0-11.18 5.37-11.18 14.6v10.1zm25.06-36.72h11.66v-22h18.45v22h14v13.93h-14V103c0 4.45.81 8.32 7.34 8.32a31.26 31.26 0 006.14-.53v12c-3.42 1.33-8.5 1.63-12.33 1.63-12 0-19.6-3.66-19.6-18.6V46.29h-11.66zm55.95 8.54c3.48-12.6 6.06-27.72 6.12-40.9h16.95c-.44 15.93-5.55 33.51-9.29 40.9zm44.17 54.42v4.08c0 6.94 2.78 11.72 9.89 11.72 6.71 0 9.48-3.55 9.48-10.55s-2.39-11.19-14.94-18.17c-14.45-8-21.32-14.52-21.32-27.34 0-14.54 8.79-24.11 26.82-24.11 19.56 0 26.63 9.78 26.63 25.17v3.85h-17.93v-5.35c0-6.9-2.55-10.24-8.68-10.24s-8.4 3.64-8.4 9.36c0 5.91 2.23 8.56 12.29 14.15 17.35 9.54 24.25 15.92 24.25 30.82 0 17-9.57 25.85-28.82 25.85-22.6 0-28-12.41-28-25.18v-4.06zm92.12-75.48h-22.24V5.17h63v14.67h-22.24v103.3h-18.52zm93.76 85.92c0 5.91.06 14.25.41 17.38h-17c-.47-1.9-1.11-5.56-1.26-7-3.53 6-9.61 8.37-17.46 8.37-15.71 0-22-12.23-22-26.06v-1.59c0-21.6 16.5-28.1 35.56-28.1h3.34V56.07c0-7.58-1.26-12.08-8.49-12.08-7.08 0-8.88 4.68-8.88 10.93v1.87h-18.25v-1.62c0-13 5.87-24.22 27.75-24.22 19.68 0 26.28 9.77 26.28 23.9zM394.9 81.01h-4.21c-10.64 0-17.33 3.62-17.33 15.67v1.47c0 7.11 2.81 12.5 10.12 12.5 8.2 0 11.42-5.23 11.42-18zm36.81 42.13V0h18.52v123.14zm55.37-50.25h.35c4.86-10.09 15.12-29.29 20.76-40.53h19.51l-19.76 33.45 21.93 57.33h-20.21l-14.5-41.93-8.08 13.38v28.55h-18.37V0h18.37z" fill="#91007c"/><path d="M584.29 5.18v118.35h-11.66V5.18zm37.33 77.95l-11.23 40.4h-11.67l34-118.35h15.16l35.15 118.35h-12.54l-11.41-40.4zm34.82-9c-9.09-31.42-14.67-50.65-16.4-59.38h-.44c-2 10.08-8.1 32.66-15.52 59.38zm40.62-68.95h33.53c21.3 0 35.57 11.66 35.57 32.13s-12.81 34-37.92 34h-19.52v52.22h-11.66zm11.66 57.35h18.35c17.65 0 27.08-8.17 27.08-25.23 0-13.53-8.29-23.28-25.18-23.28h-20.25zm95.77-48.3h-31.35v-9h74.35v9h-31.34v109.3h-11.66z" fill="#3fa9f5"/></svg>