<svg data-name="Layer 1" xmlns="http://www.w3.org/2000/svg" viewBox="0 0 598.23 240.9"><path d="M598.23 240.9V0H0v240.9zM240.52 23.24l-41.29 193.91h-64.82L93.67 83h-.55L66.01 217.15H16.87L58.49 23.24h65l39.94 134.47h.55l27.39-134.47zm185.36 0l-40.49 193.91h-52.16l17.31-83.05h-61.75l-17.32 83.05h-52.19l40.5-193.91h52.19l-15.34 74.19h61.7l15.36-74.19zm149.94 5.29l-12.59 38.61c-10-4.71-23.72-8.87-43-8.87-20.64 0-37.41 3-37.41 18.61 0 27.48 75.67 17.23 75.67 76.12 0 53.6-50 67.5-95.22 67.5-20.1 0-43.27-4.74-60.29-10l12.3-39.5c10.31 6.68 31 11.13 48 11.13 16.22 0 41.6-3.06 41.6-23.06.01-31.07-75.65-19.43-75.65-74.07 0-50 44.12-65 86.85-65 24 0 46.62 2.52 59.75 8.61z" fill="#005eb8"/></svg>