<svg data-name="Layer 1" xmlns="http://www.w3.org/2000/svg" viewBox="0 0 466.71 201.82"><path d="M464.65 128.4V0H145.78v128.4zm-190.67-116l-22 103.35h-34.55l-21.72-71.52h-.3l-14.44 71.51h-26.2l22.19-103.35h34.69l21.29 71.67h.29l14.59-71.67zm98.81 0L351.2 115.74h-27.82l9.27-44.26h-32.9l-9.23 44.26h-27.87l21.6-103.35h27.81l-8.17 39.54h32.89l8.19-39.54zm79.91 2.82L446 35.8c-5.36-2.51-12.65-4.73-22.91-4.73-11 0-19.94 1.62-19.94 9.92 0 14.65 40.33 9.18 40.33 40.57 0 28.57-26.65 36-50.75 36-10.72 0-23.07-2.53-32.14-5.34l6.55-21c5.49 3.56 16.52 5.93 25.59 5.93 8.64 0 22.17-1.63 22.17-12.29 0-16.59-40.34-10.37-40.34-39.52 0-26.67 23.52-34.66 46.3-34.66 12.8 0 24.85 1.34 31.84 4.59z" fill="#005eb8"/><text transform="translate(0 187.9)" font-size="37" fill="#3fa9f5" font-family="Arial-BoldMT,Arial" font-weight="700">Barnet, Enfield &amp; Haringey</text></svg>