<svg id="Layer_1" data-name="Layer 1" xmlns="http://www.w3.org/2000/svg" viewBox="0 0 470.48 409.21"><defs><style>.cls-1{fill:#3fa9f5;}.cls-2,.cls-3,.cls-5{fill:#fff;}.cls-3,.cls-4,.cls-5{stroke:#3fa9f5;}.cls-3,.cls-4{stroke-miterlimit:10;stroke-width:20.92px;}.cls-4{fill:none;}.cls-5{stroke-linecap:round;stroke-linejoin:round;stroke-width:16.74px;}</style></defs><title>Online</title><path class="cls-1" d="M342.74,63h57.85a21.78,21.78,0,0,1,21.78,21.78v66.34A19.35,19.35,0,0,1,403,170.43H342.74A21.78,21.78,0,0,1,321,148.65V84.73A21.78,21.78,0,0,1,342.74,63Z"/><path class="cls-2" d="M356.24,192.77V182.9a30.42,30.42,0,0,1,30.42-30.42h0a30.43,30.43,0,0,1,30.43,30.42v9.87" transform="translate(-15 -41.63)"/><path class="cls-2" d="M404.62,141.34a17.47,17.47,0,1,1-17.47-17.46A17.47,17.47,0,0,1,404.62,141.34Z" transform="translate(-15 -41.63)"/><path class="cls-3" d="M229.64,254.38v48.69H89.31V254.38a59,59,0,0,1,59-59h22.27A59,59,0,0,1,229.64,254.38Z" transform="translate(-15 -41.63)"/><path class="cls-3" d="M199.76,169.67a40.29,40.29,0,1,1-40.28-40.28A40.29,40.29,0,0,1,199.76,169.67Z" transform="translate(-15 -41.63)"/><line class="cls-4" x1="7.33" y1="261.43" x2="455.5" y2="261.43"/><path class="cls-1" d="M443,84.45C454.1,84.45,463.5,92,463.5,101V325.5c0,9-9.4,16.52-20.52,16.52H305.05a22,22,0,0,0-19,33l16.58,28.53a22,22,0,0,0,19,10.94h24.51c8.58,0,15.84,5.63,15.84,12.29v2.05H138.5v-2.05c0-6.66,7.25-12.29,15.84-12.29h24.51a22,22,0,0,0,19-10.94l16.58-28.53a22,22,0,0,0-19-33H57.5C46.38,342,37,334.46,37,325.5V101c0-9,9.4-16.53,20.52-16.53H443m0-22H57.5C34,62.47,15,79.71,15,101V325.5C15,346.77,34,364,57.5,364H195.43l-16.58,28.53H154.34c-20.89,0-37.82,15.34-37.82,34.27v24H384v-24c0-18.93-16.93-34.27-37.82-34.27H321.63L305.05,364H443c23.47,0,42.5-17.24,42.5-38.51V101c0-21.27-19-38.51-42.5-38.51Z" transform="translate(-15 -41.63)"/><path class="cls-5" d="M311.7,100.31c0,27.78-31,50.3-69.21,50.3-13.11,0-23.27-4-36-1s-25.4,9.25-36.89,15.13c3.24-9.3,15.17-27.39,14.35-36.85-.8-9.07-10.71-16.48-10.71-27.58,0-27.78,31-50.3,69.21-50.3S311.7,72.52,311.7,100.31Z" transform="translate(-15 -41.63)"/><circle class="cls-1" cx="199.86" cy="61.59" r="9.74"/><circle class="cls-1" cx="227.97" cy="61.59" r="9.74"/><circle class="cls-1" cx="253.86" cy="61.59" r="9.74"/></svg>