<svg id="Layer_1" data-name="Layer 1" xmlns="http://www.w3.org/2000/svg" viewBox="0 0 244.29 169.62"><defs><style>.cls-1{fill:#3fa9f5;}</style></defs><title>Email</title><path class="cls-1" d="M102.34,143.53,137,172.86a7.47,7.47,0,0,0,9.83,0l34.57-29.42,54,55.4-186.84.23ZM247.6,87l.09,99.86L194.5,132.24ZM36,87.27l53.22,45.11L36.09,187.16ZM37.75,66l208.07-.26-104,88.48ZM30.52,47.87C24.66,47.9,19.7,53.44,19.69,60l.14,145.14c0,6.54,5,12.1,10.86,12.08l222.45-.28c5.87,0,10.84-5.56,10.84-12.1l-.13-145.15c0-6.54-5-12.09-10.85-12.09Z" transform="translate(-19.69 -47.6)"/></svg>