<svg id="Layer_1" data-name="Layer 1" xmlns="http://www.w3.org/2000/svg" viewBox="0 0 460.32 375.88"><defs><style>.cls-1,.cls-3,.cls-5{fill:#fff;}.cls-1,.cls-3,.cls-4,.cls-5{stroke:#3fa9f5;stroke-miterlimit:10;}.cls-1{stroke-width:23.31px;}.cls-2{fill:#3fa9f5;}.cls-3,.cls-4{stroke-width:19.29px;}.cls-4{fill:none;}.cls-5{stroke-width:25.94px;}</style></defs><title>Face2Face</title><path class="cls-1" d="M239,140.54a75,75,0,1,1-75-75A75,75,0,0,1,239,140.54Z" transform="translate(-21.77 -53.9)"/><path class="cls-2" d="M232.22,374V333.69A124.39,124.39,0,0,1,356.61,209.3h0A124.39,124.39,0,0,1,481,333.69V374" transform="translate(-21.77 -53.9)"/><path class="cls-3" d="M430,163.79A71.42,71.42,0,1,1,358.6,92.37,71.41,71.41,0,0,1,430,163.79Z" transform="translate(-21.77 -53.9)"/><path class="cls-4" d="M283,168.29a82,82,0,0,0,46.25-13.47c5.1-3.34,1.8-27.74,7.65-29.48s8.39,14.83,14,16.07c20.2,4.42,54,8.85,74.66,9" transform="translate(-21.77 -53.9)"/><path class="cls-5" d="M469.12,364.68c0,28.79-98.06,52.13-219,52.13s-193.4-23.34-193.4-52.13,72.45-52.13,193.4-52.13S469.12,335.89,469.12,364.68Z" transform="translate(-21.77 -53.9)"/><path class="cls-1" d="M294.63,326.19v90.62H124.05a90.63,90.63,0,0,1-90.63-90.63h0A109.87,109.87,0,0,1,143.3,216.3h41.45A109.88,109.88,0,0,1,294.63,326.19Z" transform="translate(-21.77 -53.9)"/></svg>