<svg id="Layer_1" data-name="Layer 1" xmlns="http://www.w3.org/2000/svg" viewBox="0 0 141.55 222.69"><defs><style>.cls-1{fill:#3fa9f5;}</style></defs><title>Map Pin</title><path class="cls-1" d="M142.4,38c34,0,61.95,27.53,62.21,61.37.19,25.39-12.2,41.29-26.55,59.69-15.24,19.54-32.37,41.52-36.22,78.12-3.81-36.69-21-58.7-36.23-78.27C91.28,140.53,78.9,124.65,79.07,99.3,79.31,65.5,107.16,38,141.15,38h1.25m0-8h-1.25c-38.38,0-69.81,30.87-70.08,69.24-.41,58.79,59.84,71.46,63.38,146.38a7.41,7.41,0,0,0,7.32,7.07h.07a7.41,7.41,0,0,0,7.39-7.07c3.61-74.82,63.84-87.49,63.38-146.3C212.32,60.89,180.83,30,142.4,30Z" transform="translate(-71.07 -30)"/><circle class="cls-1" cx="70.78" cy="71.84" r="29.39"/></svg>