<svg id="Layer_1" data-name="Layer 1" xmlns="http://www.w3.org/2000/svg" viewBox="0 0 850.25 221.72"><defs><style>.cls-1{fill:#fe0000;}.cls-2{fill:#fe6100;}.cls-3{fill:#fefe00;}.cls-4{fill:#017f01;}.cls-5{fill:#0000fe;}.cls-6{fill:#4b0081;}.cls-7{fill:#bb30fd;}.cls-8{fill:#7b0079;}.cls-9{fill:#6ba6f1;}</style></defs><title>LetsTalk_Footer_Logo</title><rect class="cls-1" x="398.7" y="935.55" width="55.72" height="121.12" transform="translate(-935.55 620.42) rotate(-90)"/><rect class="cls-2" x="519.82" y="935.55" width="55.72" height="121.12" transform="translate(-814.44 741.53) rotate(-90)"/><rect class="cls-3" x="640.93" y="935.55" width="55.72" height="121.12" transform="translate(-693.32 862.65) rotate(-90)"/><rect class="cls-4" x="762.05" y="935.55" width="55.72" height="121.12" transform="translate(-572.2 983.77) rotate(-90)"/><rect class="cls-5" x="883.17" y="935.55" width="55.72" height="121.12" transform="translate(-451.08 1104.89) rotate(-90)"/><rect class="cls-6" x="1004.29" y="935.55" width="55.72" height="121.12" transform="translate(-329.96 1226) rotate(-90)"/><rect class="cls-7" x="1125.41" y="935.55" width="55.72" height="121.12" transform="translate(-208.85 1347.12) rotate(-90)"/><path class="cls-8" d="M368.77,807.43h18.51v103.8H422l-1.74,14.17h-51.5Z" transform="translate(-366 -802.26)"/><path class="cls-8" d="M448.52,883.9v14c0,7.85,2,15.51,11,15.51s10.5-6.67,10.5-14.1v-.57h18.08v.51c0,9.94-2.58,27.59-28.27,27.59-25,0-29.42-13.53-29.42-31.91V863.45c0-13,5-30.24,29.47-30.24,21.77,0,28.57,13,28.57,30.17V883.9Zm22.17-12.56V861.19c0-8.43-2-14.55-10.85-14.55-8.15,0-11.17,5.36-11.17,14.6v10.1Z" transform="translate(-366 -802.26)"/><path class="cls-8" d="M495.76,834.62h11.65v-22h18.46v22h14v13.93h-14v56.71c0,4.45.8,8.32,7.33,8.32a31.26,31.26,0,0,0,6.14-.53v12c-3.41,1.33-8.5,1.63-12.32,1.63-12,0-19.61-3.66-19.61-18.6V848.55H495.76Z" transform="translate(-366 -802.26)"/><path class="cls-8" d="M551.71,843.16c3.47-12.6,6.06-27.72,6.12-40.9h16.94c-.43,15.93-5.54,33.51-9.29,40.9Z" transform="translate(-366 -802.26)"/><path class="cls-8" d="M595.87,897.58v4.08c0,6.94,2.79,11.72,9.89,11.72,6.72,0,9.48-3.55,9.48-10.55s-2.39-11.19-14.94-18.17c-14.45-8-21.31-14.52-21.31-27.34,0-14.54,8.79-24.11,26.81-24.11,19.56,0,26.64,9.78,26.64,25.17v3.85H614.5v-5.35c0-6.9-2.54-10.24-8.67-10.24s-8.41,3.64-8.41,9.36c0,5.91,2.23,8.55,12.29,14.15C627.06,879.69,634,886.07,634,901c0,17-9.58,25.84-28.83,25.84-22.6,0-28-12.4-28-25.17v-4.06Z" transform="translate(-366 -802.26)"/><path class="cls-8" d="M688,822.1H665.76V807.43h63V822.1H706.51V925.4H688Z" transform="translate(-366 -802.26)"/><path class="cls-8" d="M781.75,908c0,5.91.06,14.25.41,17.38h-17a67.74,67.74,0,0,1-1.26-7c-3.54,6-9.61,8.37-17.47,8.37-15.71,0-22-12.22-22-26v-1.59c0-21.6,16.5-28.1,35.56-28.1h3.35V858.33c0-7.58-1.26-12.08-8.49-12.08S746,850.93,746,857.18v1.87H727.72v-1.62c0-12.95,5.87-24.22,27.75-24.22,19.68,0,26.28,9.77,26.28,23.9Zm-18.08-24.75h-4.22c-10.63,0-17.33,3.62-17.33,15.67v1.47c0,7.11,2.81,12.49,10.12,12.49,8.2,0,11.43-5.22,11.43-18Z" transform="translate(-366 -802.26)"/><path class="cls-8" d="M800.47,925.4V802.26H819V925.4Z" transform="translate(-366 -802.26)"/><path class="cls-8" d="M855.84,875.15h.35c4.86-10.09,15.12-29.3,20.76-40.53h19.51L876.7,868.07l21.93,57.33H878.42l-14.5-41.93-8.08,13.38V925.4H837.47V802.26h18.37Z" transform="translate(-366 -802.26)"/><path class="cls-9" d="M953.06,807.44V925.79H941.4V807.44Z" transform="translate(-366 -802.26)"/><path class="cls-9" d="M990.39,885.39l-11.24,40.4H967.49l34-118.35h15.16l35.19,118.35h-12.54l-11.41-40.4Zm34.82-9c-9.1-31.42-14.68-50.65-16.41-59.38h-.44c-2,10.08-8.09,32.66-15.51,59.38Z" transform="translate(-366 -802.26)"/><path class="cls-9" d="M1065.82,807.44h33.53c21.3,0,35.57,11.66,35.57,32.13s-12.81,33.95-37.91,33.95h-19.53v52.27h-11.66Zm11.66,57.31h18.35c17.65,0,27.08-8.17,27.08-25.23,0-13.53-8.29-23.28-25.17-23.28h-20.26Z" transform="translate(-366 -802.26)"/><path class="cls-9" d="M1173.25,816.49H1141.9v-9h74.35v9h-31.34v109.3h-11.66Z" transform="translate(-366 -802.26)"/></svg>